<?xml version="1.0" encoding="UTF-8" standalone="no"?>
<!-- Created with Inkscape (http://www.inkscape.org/) -->

<svg
   width="300mm"
   height="300mm"
   viewBox="0 0 300 300"
   version="1.1"
   id="svg1"
   inkscape:version="1.4 (86a8ad7, 2024-10-11)"
   sodipodi:docname="logo_white.svg"
   xml:space="preserve"
   xmlns:inkscape="http://www.inkscape.org/namespaces/inkscape"
   xmlns:sodipodi="http://sodipodi.sourceforge.net/DTD/sodipodi-0.dtd"
   xmlns="http://www.w3.org/2000/svg"
   xmlns:svg="http://www.w3.org/2000/svg"><sodipodi:namedview
     id="namedview1"
     pagecolor="#ffffff"
     bordercolor="#999999"
     borderopacity="1"
     inkscape:showpageshadow="2"
     inkscape:pageopacity="0"
     inkscape:pagecheckerboard="true"
     inkscape:deskcolor="#d1d1d1"
     inkscape:document-units="mm"
     inkscape:zoom="0.5"
     inkscape:cx="429"
     inkscape:cy="533"
     inkscape:window-width="1920"
     inkscape:window-height="1009"
     inkscape:window-x="-8"
     inkscape:window-y="-8"
     inkscape:window-maximized="1"
     inkscape:current-layer="layer5"
     showguides="true" /><defs
     id="defs1"><inkscape:path-effect
       effect="copy_rotate"
       starting_point="159.43146,195.77569"
       origin="152.42998,199.41371"
       id="path-effect83"
       is_visible="true"
       lpeversion="1.2"
       lpesatellites=""
       method="normal"
       num_copies="5"
       starting_angle="27.456717"
       rotation_angle="72"
       gap="-0.01"
       copies_to_360="true"
       mirror_copies="false"
       split_items="false"
       link_styles="false" /><inkscape:path-effect
       effect="bend_path"
       id="path-effect82"
       is_visible="true"
       lpeversion="1"
       bendpath="m 146.92211,202.04411 c 3.11498,1.824 6.06272,1.56502 8.90516,-0.005"
       prop_scale="1"
       scale_y_rel="false"
       vertical="false"
       hide_knot="false"
       bendpath-nodetypes="cc" /><inkscape:path-effect
       effect="bend_path"
       id="path-effect68"
       is_visible="true"
       lpeversion="1"
       bendpath="m 140.07096,210.69874 h 8.87984"
       prop_scale="1"
       scale_y_rel="false"
       vertical="false"
       hide_knot="true" /><inkscape:path-effect
       effect="copy_rotate"
       starting_point="144.04584,213.28299"
       origin="139.05565,213.28299"
       id="path-effect67"
       is_visible="true"
       lpeversion="1.2"
       lpesatellites=""
       method="normal"
       num_copies="5"
       starting_angle="0"
       rotation_angle="72"
       gap="-0.01"
       copies_to_360="true"
       mirror_copies="false"
       split_items="false"
       link_styles="false" /><inkscape:path-effect
       effect="mirror_symmetry"
       start_point="134.89,206.64196"
       end_point="134.89,207.768"
       center_point="134.89,207.20498"
       id="path-effect63"
       is_visible="true"
       lpeversion="1.2"
       lpesatellites=""
       mode="free"
       discard_orig_path="false"
       fuse_paths="false"
       oposite_fuse="false"
       split_items="false"
       split_open="false"
       link_styles="false" /><inkscape:path-effect
       effect="mirror_symmetry"
       start_point="135.25,208.8224"
       end_point="135.25,210.64528"
       center_point="135.25,209.73384"
       id="path-effect62"
       is_visible="true"
       lpeversion="1.2"
       lpesatellites=""
       mode="free"
       discard_orig_path="false"
       fuse_paths="false"
       oposite_fuse="false"
       split_items="false"
       split_open="false"
       link_styles="false" /><inkscape:path-effect
       effect="bend_path"
       id="path-effect11"
       is_visible="true"
       lpeversion="1"
       bendpath="m 129.17206,227.39964 h 8.62574"
       prop_scale="1"
       scale_y_rel="false"
       vertical="false"
       hide_knot="false" /><inkscape:path-effect
       effect="mirror_symmetry"
       start_point="109.42,213.36"
       end_point="109.42087,216.67392"
       center_point="109.42043,215.01696"
       id="path-effect9"
       is_visible="true"
       lpeversion="1.2"
       lpesatellites=""
       mode="free"
       discard_orig_path="false"
       fuse_paths="false"
       oposite_fuse="false"
       split_items="false"
       split_open="false"
       link_styles="false" /><inkscape:path-effect
       effect="mirror_symmetry"
       start_point="124.51,205.119"
       end_point="124.51,206.24447"
       center_point="124.51,205.68174"
       id="path-effect4"
       is_visible="true"
       lpeversion="1.2"
       lpesatellites=""
       mode="free"
       discard_orig_path="false"
       fuse_paths="false"
       oposite_fuse="false"
       split_items="false"
       split_open="false"
       link_styles="false" /><inkscape:path-effect
       effect="fillet_chamfer"
       id="path-effect133"
       is_visible="true"
       lpeversion="1"
       nodesatellites_param="F,0,0,1,0,0,0,1 @ F,0,0,1,0,0,0,1 | F,0,0,1,0,0,0,1 @ F,0,0,1,0,0,0,1 | F,0,0,1,0,0,0,1 @ F,0,0,1,0,0,0,1 | F,0,0,1,0,0,0,1 @ F,0,0,1,0,0,0,1 | F,0,0,1,0,0,0,1 @ F,0,0,1,0,0,0,1"
       radius="2"
       unit="px"
       method="auto"
       mode="F"
       chamfer_steps="1"
       flexible="false"
       use_knot_distance="true"
       apply_no_radius="true"
       apply_with_radius="true"
       only_selected="false"
       hide_knots="false" /><inkscape:path-effect
       effect="mirror_symmetry"
       start_point="124.58,207.54149"
       end_point="124.58,209.12104"
       center_point="124.58,208.33127"
       id="path-effect132"
       is_visible="true"
       lpeversion="1.2"
       lpesatellites=""
       mode="free"
       discard_orig_path="false"
       fuse_paths="false"
       oposite_fuse="false"
       split_items="false"
       split_open="false"
       link_styles="false" /><inkscape:path-effect
       effect="mirror_symmetry"
       start_point="124.48,207.30206"
       end_point="124.48,209.14071"
       center_point="124.48,208.22138"
       id="path-effect128"
       is_visible="true"
       lpeversion="1.2"
       lpesatellites=""
       mode="free"
       discard_orig_path="false"
       fuse_paths="false"
       oposite_fuse="false"
       split_items="false"
       split_open="false"
       link_styles="false" /><inkscape:path-effect
       effect="mirror_symmetry"
       start_point="128.78,208.83962"
       end_point="128.98,211.10736"
       center_point="128.88,209.97349"
       id="path-effect127"
       is_visible="true"
       lpeversion="1.2"
       lpesatellites=""
       mode="free"
       discard_orig_path="false"
       fuse_paths="false"
       oposite_fuse="false"
       split_items="false"
       split_open="false"
       link_styles="false" /><inkscape:path-effect
       effect="mirror_symmetry"
       start_point="114.16,208.2299"
       end_point="114.16,209.34397"
       center_point="114.16,208.78693"
       id="path-effect126"
       is_visible="true"
       lpeversion="1.2"
       lpesatellites=""
       mode="free"
       discard_orig_path="false"
       fuse_paths="false"
       oposite_fuse="false"
       split_items="false"
       split_open="false"
       link_styles="false" /><inkscape:path-effect
       effect="roughen"
       id="path-effect125"
       is_visible="true"
       lpeversion="1.2"
       global_randomize="1.5;1"
       displace_x="0.0161719;1"
       displace_y="0.00742713;1"
       method="size"
       max_segment_size="0.0222814"
       segments="2"
       handles="smooth"
       shift_nodes="true"
       fixed_displacement="false"
       spray_tool_friendly="false" /><inkscape:path-effect
       effect="fillet_chamfer"
       id="path-effect124"
       is_visible="true"
       lpeversion="1"
       nodesatellites_param="F,0,0,1,0,0,0,1 @ F,0,0,1,0,0,0,1 @ F,0,0,1,0,0,0,1 @ F,0,0,1,0,0,0,1 @ F,0,0,1,0,0,0,1 @ F,0,0,1,0,0,0,1 @ F,0,0,1,0,0,0,1 @ F,0,0,1,0,0,0,1 @ F,0,0,1,0,0,0,1 @ F,0,0,1,0,0,0,1 @ F,0,0,1,0,0,0,1 @ F,0,0,1,0,0,0,1 @ F,0,0,1,0,0,0,1 @ F,0,0,1,0,0,0,1 @ F,0,0,1,0,0,0,1 @ F,0,0,1,0,0,0,1"
       radius="0"
       unit="px"
       method="auto"
       mode="F"
       chamfer_steps="1"
       flexible="false"
       use_knot_distance="true"
       apply_no_radius="true"
       apply_with_radius="true"
       only_selected="false"
       hide_knots="false" /><inkscape:path-effect
       effect="join_type"
       id="path-effect123"
       is_visible="true"
       lpeversion="1"
       linecap_type="butt"
       line_width="0.0099999998"
       linejoin_type="extrp_arc"
       miter_limit="100"
       attempt_force_join="true" /><inkscape:path-effect
       effect="mirror_symmetry"
       start_point="114.49,205.49"
       end_point="113.89,211.15"
       center_point="114.19,208.32"
       id="path-effect122"
       is_visible="true"
       lpeversion="1.2"
       lpesatellites=""
       mode="free"
       discard_orig_path="false"
       fuse_paths="false"
       oposite_fuse="false"
       split_items="false"
       split_open="false"
       link_styles="false" /><inkscape:path-effect
       effect="mirror_symmetry"
       start_point="114.47,212.84902"
       end_point="113.87008,205.59417"
       center_point="114.17004,209.22159"
       id="path-effect121"
       is_visible="true"
       lpeversion="1.2"
       lpesatellites=""
       mode="free"
       discard_orig_path="false"
       fuse_paths="false"
       oposite_fuse="false"
       split_items="false"
       split_open="false"
       link_styles="false" /><inkscape:path-effect
       effect="fillet_chamfer"
       id="path-effect120"
       is_visible="true"
       lpeversion="1"
       nodesatellites_param="F,0,0,1,0,0,0,1 @ F,0,0,1,0,0,0,1 @ F,0,0,1,0,0,0,1 @ F,0,0,1,0,0,0,1 @ F,0,0,1,0,0,0,1 @ F,0,0,1,0,0,0,1 @ F,0,0,1,0,0,0,1 @ F,0,0,1,0,0,0,1 @ F,0,0,1,0,0,0,1 @ F,0,0,1,0,0,0,1 @ F,0,0,1,0,0,0,1 @ F,0,0,1,0,0,0,1 @ F,0,0,1,0,0,0,1 @ F,0,0,1,0,0,0,1 @ F,0,0,1,0,0,0,1 @ F,0,0,1,0,0,0,1 @ F,0,0,1,0,0,0,1 @ F,0,0,1,0,0,0,1 @ F,0,0,1,0,0,0,1 @ F,0,0,1,0,0,0,1 @ F,0,0,1,0,0,0,1 @ F,0,0,1,0,0,0,1 @ F,0,0,1,0,0,0,1 @ F,0,0,1,0,0,0,1 @ F,0,0,1,0,0,0,1 @ F,0,0,1,0,0,0,1 @ F,0,0,1,0,0,0,1 @ F,0,0,1,0,0,0,1 @ F,0,0,1,0,0,0,1 @ F,0,0,1,0,0,0,1 @ F,0,0,1,0,0,0,1 @ F,0,0,1,0,0,0,1 @ F,0,0,1,0,0,0,1 @ F,0,0,1,0,0,0,1 @ F,0,0,1,0,0,0,1 @ F,0,0,1,0,0,0,1 @ F,0,0,1,0,0,0,1 @ F,0,0,1,0,0,0,1 @ F,0,0,1,0,0,0,1 @ F,0,0,1,0,0,0,1 @ F,0,0,1,0,0,0,1 @ F,0,0,1,0,0,0,1 @ F,0,0,1,0,0,0,1 @ F,0,0,1,0,0,0,1 @ F,0,0,1,0,0,0,1 @ F,0,0,1,0,0,0,1 @ F,0,0,1,0,0,0,1 @ F,0,0,1,0,0,0,1 @ F,0,0,1,0,0,0,1 @ F,0,0,1,0,0,0,1 @ F,0,0,1,0,0,0,1 @ F,0,0,1,0,0,0,1 @ F,0,0,1,0,0,0,1 @ F,0,0,1,0,0,0,1 @ F,0,0,1,0,0,0,1 @ F,0,0,1,0,0,0,1 @ F,0,0,1,0,0,0,1 @ F,0,0,1,0,0,0,1 @ F,0,0,1,0,0,0,1 @ F,0,0,1,0,0,0,1 @ F,0,0,1,0,0,0,1 @ F,0,0,1,0,0,0,1 @ F,0,0,1,0,0,0,1 @ F,0,0,1,0,0,0,1 @ F,0,0,1,0,0,0,1 @ F,0,0,1,0,0,0,1 @ F,0,0,1,0,0,0,1 @ F,0,0,1,0,0,0,1 @ F,0,0,1,0,0,0,1 @ F,0,0,1,0,0,0,1 @ F,0,0,1,0,0,0,1 @ F,0,0,1,0,0,0,1 @ F,0,0,1,0,0,0,1 @ F,0,0,1,0,0,0,1 @ F,0,0,1,0,0,0,1 @ F,0,0,1,0,0,0,1 @ F,0,0,1,0,0,0,1"
       radius="0"
       unit="px"
       method="auto"
       mode="F"
       chamfer_steps="1"
       flexible="false"
       use_knot_distance="true"
       apply_no_radius="true"
       apply_with_radius="true"
       only_selected="false"
       hide_knots="false" /><inkscape:path-effect
       effect="mirror_symmetry"
       start_point="114.46,205"
       end_point="113.96,211.70263"
       center_point="114.21,208.35131"
       id="path-effect119"
       is_visible="true"
       lpeversion="1.2"
       lpesatellites=""
       mode="free"
       discard_orig_path="false"
       fuse_paths="true"
       oposite_fuse="false"
       split_items="false"
       split_open="false"
       link_styles="false" /><inkscape:path-effect
       effect="fillet_chamfer"
       id="path-effect117"
       is_visible="true"
       lpeversion="1"
       nodesatellites_param="F,0,0,1,0,2.9104166,0,1 @ F,0,0,1,0,2.9104166,0,1 @ F,0,0,1,0,2.9104166,0,1 @ F,0,0,1,0,2.9104166,0,1 @ F,0,0,1,0,2.9104166,0,1 @ F,0,0,1,0,2.9104166,0,1 @ F,0,0,1,0,2.9104166,0,1 @ F,0,0,1,0,2.9104166,0,1 @ F,0,0,1,0,2.9104166,0,1 @ F,0,0,1,0,2.9104166,0,1 @ F,0,0,1,0,2.9104166,0,1 @ F,0,0,1,0,2.9104166,0,1 @ F,0,0,1,0,2.9104166,0,1 @ F,0,0,1,0,2.9104166,0,1 @ F,0,0,1,0,2.9104166,0,1 @ F,0,0,1,0,2.9104166,0,1 @ F,0,0,1,0,2.9104166,0,1 @ F,0,0,1,0,2.9104166,0,1 @ F,0,0,1,0,2.9104166,0,1 @ F,0,0,1,0,2.9104166,0,1 @ F,0,0,1,0,2.9104166,0,1 @ F,0,0,1,0,2.9104166,0,1 @ F,0,0,1,0,2.9104166,0,1 @ F,0,0,1,0,2.9104166,0,1 @ F,0,0,1,0,2.9104166,0,1 @ F,0,0,1,0,2.9104166,0,1 @ F,0,0,1,0,2.9104166,0,1 @ F,0,0,1,0,2.9104166,0,1 @ F,0,0,1,0,2.9104166,0,1 @ F,0,0,1,0,2.9104166,0,1 @ F,0,0,1,0,2.9104166,0,1 @ F,0,0,1,0,2.9104166,0,1 @ F,0,0,1,0,2.9104166,0,1 @ F,0,0,1,0,2.9104166,0,1 @ F,0,0,1,0,2.9104166,0,1 @ F,0,0,1,0,2.9104166,0,1 @ F,0,0,1,0,2.9104166,0,1 @ F,0,0,1,0,2.9104166,0,1 @ F,0,0,1,0,2.9104166,0,1 @ F,0,0,1,0,2.9104166,0,1 @ F,0,0,1,0,2.9104166,0,1 @ F,0,0,1,0,2.9104166,0,1 @ F,0,0,1,0,2.9104166,0,1 @ F,0,0,1,0,2.9104166,0,1 @ F,0,0,1,0,2.9104166,0,1 @ F,0,0,1,0,2.9104166,0,1 @ F,0,0,1,0,2.9104166,0,1 @ F,0,0,1,0,2.9104166,0,1 @ F,0,0,1,0,2.9104166,0,1 @ F,0,0,1,0,2.9104166,0,1 @ F,0,0,1,0,2.9104166,0,1 @ F,0,0,1,0,2.9104166,0,1 @ F,0,0,1,0,2.9104166,0,1 @ F,0,0,1,0,2.9104166,0,1 @ F,0,0,1,0,2.9104166,0,1 @ F,0,0,1,0,2.9104166,0,1 @ F,0,0,1,0,2.9104166,0,1 @ F,0,0,1,0,2.9104166,0,1 @ F,0,0,1,0,2.9104166,0,1 @ F,0,0,1,0,2.9104166,0,1 @ F,0,0,1,0,2.9104166,0,1 @ F,0,0,1,0,2.9104166,0,1"
       radius="11"
       unit="px"
       method="auto"
       mode="F"
       chamfer_steps="1"
       flexible="false"
       use_knot_distance="true"
       apply_no_radius="true"
       apply_with_radius="true"
       only_selected="false"
       hide_knots="false" /><inkscape:path-effect
       effect="mirror_symmetry"
       start_point="116.94,183.64564"
       end_point="117.5413,194.39432"
       center_point="117.24065,189.01998"
       id="path-effect116"
       is_visible="true"
       lpeversion="1.2"
       lpesatellites=""
       mode="free"
       discard_orig_path="false"
       fuse_paths="true"
       oposite_fuse="false"
       split_items="false"
       split_open="false"
       link_styles="false" /><inkscape:path-effect
       effect="fillet_chamfer"
       id="path-effect113"
       is_visible="true"
       lpeversion="1"
       nodesatellites_param="F,0,0,1,0,0.79374999,0,1 @ F,0,0,1,0,0.79374999,0,1 @ F,0,0,1,0,0.79374999,0,1 @ F,0,0,1,0,0.79374999,0,1 @ F,0,0,1,0,0.79374999,0,1 @ F,0,0,1,0,0.79374999,0,1 @ F,0,0,1,0,0.79374999,0,1 @ F,0,0,1,0,0.79374999,0,1 @ F,0,0,1,0,0.79374999,0,1 @ F,0,0,1,0,0.79374999,0,1 @ F,0,0,1,0,0.79374999,0,1 @ F,0,0,1,0,0.79374999,0,1 @ F,0,0,1,0,0.79374999,0,1 @ F,0,0,1,0,0.79374999,0,1"
       radius="3"
       unit="px"
       method="auto"
       mode="F"
       chamfer_steps="1"
       flexible="false"
       use_knot_distance="true"
       apply_no_radius="true"
       apply_with_radius="true"
       only_selected="false"
       hide_knots="false" /><inkscape:path-effect
       effect="fillet_chamfer"
       id="path-effect61"
       is_visible="true"
       lpeversion="1"
       nodesatellites_param="F,0,0,1,0,0.26458333,0,1 @ F,0,0,1,0,0.26458333,0,1 @ F,0,0,1,0,0.26458333,0,1 @ F,0,0,1,0,0.26458333,0,1 @ F,0,0,1,0,0.26458333,0,1 @ F,0,0,1,0,0.26458333,0,1"
       radius="1"
       unit="px"
       method="auto"
       mode="F"
       chamfer_steps="1"
       flexible="false"
       use_knot_distance="true"
       apply_no_radius="true"
       apply_with_radius="true"
       only_selected="false"
       hide_knots="false" /><inkscape:path-effect
       effect="copy_rotate"
       starting_point="111.96291,203.00474"
       origin="99.634558,203.00474"
       id="path-effect60"
       is_visible="true"
       lpeversion="1.2"
       lpesatellites=""
       method="normal"
       num_copies="6"
       starting_angle="0"
       rotation_angle="60"
       gap="-0.01"
       copies_to_360="true"
       mirror_copies="false"
       split_items="false"
       link_styles="false" /><inkscape:path-effect
       effect="ruler"
       id="path-effect59"
       is_visible="true"
       lpeversion="1.3.1"
       unit="px"
       mark_distance="20"
       mark_angle="0"
       mark_length="14"
       minor_mark_length="7"
       minor_mark_gap="0"
       major_mark_gap="0"
       major_mark_steps="5"
       shift="0"
       offset="0"
       mark_dir="left"
       border_marks="both" /><inkscape:path-effect
       effect="clone_original"
       linkeditem=""
       id="path-effect58"
       is_visible="true"
       lpeversion="1"
       method="d"
       attributes=""
       css_properties=""
       allow_transforms="true" /><inkscape:path-effect
       effect="perspective-envelope"
       up_left_point="84.45333,207.84479"
       up_right_point="109.11003,207.84479"
       down_left_point="84.45333,228.34313"
       down_right_point="109.11003,228.34313"
       id="path-effect57"
       is_visible="true"
       lpeversion="1"
       deform_type="perspective"
       horizontal_mirror="false"
       vertical_mirror="false"
       overflow_perspective="false" /><inkscape:path-effect
       effect="knot"
       id="path-effect56"
       is_visible="true"
       lpeversion="1"
       switcher_size="15.8"
       interruption_width="3"
       prop_to_stroke_width="true"
       add_stroke_width="inkscape_1.0_and_up"
       both="false"
       inverse_width="false"
       add_other_stroke_width="inkscape_1.0_and_up"
       crossing_points_vector="" /><inkscape:path-effect
       effect="roughen"
       id="path-effect55"
       is_visible="true"
       lpeversion="1.2"
       global_randomize="1;1"
       displace_x="0.164378;1"
       displace_y="0.136656;1"
       method="size"
       max_segment_size="0.409967"
       segments="2"
       handles="along"
       shift_nodes="true"
       fixed_displacement="false"
       spray_tool_friendly="false" /><inkscape:path-effect
       effect="copy_rotate"
       starting_point="264.72147,92.567838"
       origin="234.57579,92.567838"
       id="path-effect50"
       is_visible="true"
       lpeversion="1.2"
       lpesatellites=""
       method="normal"
       num_copies="5"
       starting_angle="0"
       rotation_angle="72"
       gap="-0.01"
       copies_to_360="true"
       mirror_copies="false"
       split_items="false"
       link_styles="false" /><inkscape:path-effect
       effect="copy_rotate"
       starting_point="81.599981,209.24096"
       origin="74.407258,209.24096"
       id="path-effect49"
       is_visible="true"
       lpeversion="1.2"
       lpesatellites=""
       method="normal"
       num_copies="5"
       starting_angle="0"
       rotation_angle="72"
       gap="-0.01"
       copies_to_360="true"
       mirror_copies="false"
       split_items="false"
       link_styles="false" /><inkscape:path-effect
       effect="bend_path"
       id="path-effect48"
       is_visible="true"
       lpeversion="1"
       bendpath="m 64.822916,216.10403 6.786206,1.85351 7.404816,-1.76151"
       prop_scale="1"
       scale_y_rel="false"
       vertical="false"
       hide_knot="false"
       bendpath-nodetypes="ccc" /><inkscape:path-effect
       effect="skeletal"
       id="path-effect47"
       is_visible="true"
       lpeversion="1"
       pattern="M 0,0 H 1"
       copytype="single_stretched"
       prop_scale="1"
       scale_y_rel="false"
       spacing="0"
       normal_offset="0"
       tang_offset="0"
       prop_units="false"
       vertical_pattern="false"
       hide_knot="false"
       fuse_tolerance="0" /><inkscape:path-effect
       effect="spiro"
       id="path-effect46"
       is_visible="true"
       lpeversion="1" /><inkscape:path-effect
       effect="bend_path"
       id="path-effect45"
       is_visible="true"
       lpeversion="1"
       bendpath="M 9.0502403,230.78857 H 18.529791"
       prop_scale="1"
       scale_y_rel="false"
       vertical="false"
       hide_knot="false" /><inkscape:path-effect
       effect="bspline"
       id="path-effect43"
       is_visible="true"
       lpeversion="1.3"
       weight="33.333333"
       steps="2"
       helper_size="0"
       apply_no_weight="true"
       apply_with_weight="true"
       only_selected="false"
       uniform="false" /><inkscape:path-effect
       effect="copy_rotate"
       starting_point="145.09714,221.50885"
       origin="145.09714,266.40848"
       id="path-effect41"
       is_visible="true"
       lpeversion="1.2"
       lpesatellites=""
       method="normal"
       num_copies="6"
       starting_angle="90"
       rotation_angle="60"
       gap="-0.01"
       copies_to_360="true"
       mirror_copies="false"
       split_items="false"
       link_styles="false" /><inkscape:path-effect
       effect="fillet_chamfer"
       id="path-effect3"
       is_visible="true"
       lpeversion="1"
       nodesatellites_param="F,0,0,1,0,0,0,1 @ F,0,0,1,0,0,0,1 @ F,0,0,1,0,0,0,1 @ F,0,0,1,0,0,0,1 @ F,0,0,1,0,0,0,1"
       radius="0"
       unit="px"
       method="auto"
       mode="F"
       chamfer_steps="1"
       flexible="false"
       use_knot_distance="true"
       apply_no_radius="true"
       apply_with_radius="true"
       only_selected="false"
       hide_knots="false" /><inkscape:path-effect
       effect="bend_path"
       id="path-effect10"
       is_visible="true"
       lpeversion="1"
       bendpath="M 81.459173,180.73412 H 171.19951"
       prop_scale="0.98093685"
       scale_y_rel="false"
       vertical="false"
       hide_knot="false" /><inkscape:path-effect
       effect="copy_rotate"
       starting_point="88.407058,86.302979"
       origin="88.511147,86.302979"
       id="path-effect2"
       is_visible="true"
       lpeversion="1.2"
       lpesatellites=""
       method="normal"
       num_copies="5"
       starting_angle="-179.9998"
       rotation_angle="72"
       gap="-0.01"
       copies_to_360="true"
       mirror_copies="false"
       split_items="false"
       link_styles="false" /><inkscape:path-effect
       effect="fillet_chamfer"
       id="path-effect3-4"
       is_visible="true"
       lpeversion="1"
       nodesatellites_param="F,0,0,1,0,0,0,1 @ F,0,0,1,0,0,0,1 @ F,0,0,1,0,0,0,1 @ F,0,0,1,0,0,0,1"
       radius="0"
       unit="px"
       method="auto"
       mode="F"
       chamfer_steps="1"
       flexible="false"
       use_knot_distance="true"
       apply_no_radius="true"
       apply_with_radius="true"
       only_selected="false"
       hide_knots="false" /><inkscape:path-effect
       effect="fillet_chamfer"
       id="path-effect3-4-5"
       is_visible="true"
       lpeversion="1"
       nodesatellites_param="F,0,0,1,0,0,0,1 @ F,0,0,1,0,0,0,1 @ F,0,0,1,0,0,0,1 @ F,0,0,1,0,0,0,1"
       radius="0"
       unit="px"
       method="auto"
       mode="F"
       chamfer_steps="1"
       flexible="false"
       use_knot_distance="true"
       apply_no_radius="true"
       apply_with_radius="true"
       only_selected="false"
       hide_knots="false" /><inkscape:path-effect
       effect="fillet_chamfer"
       id="path-effect3-2"
       is_visible="true"
       lpeversion="1"
       nodesatellites_param="F,0,0,1,0,0,0,1 @ F,0,0,1,0,0,0,1 @ F,0,0,1,0,0,0,1 @ F,0,0,1,0,0,0,1 @ F,0,0,1,0,0,0,1"
       radius="0"
       unit="px"
       method="auto"
       mode="F"
       chamfer_steps="1"
       flexible="false"
       use_knot_distance="true"
       apply_no_radius="true"
       apply_with_radius="true"
       only_selected="false"
       hide_knots="false" /><inkscape:path-effect
       effect="fillet_chamfer"
       id="path-effect3-8"
       is_visible="true"
       lpeversion="1"
       nodesatellites_param="F,0,0,1,0,0,0,1 @ F,0,0,1,0,0,0,1 @ F,0,0,1,0,0,0,1 @ F,0,0,1,0,0,0,1 @ F,0,0,1,0,0,0,1"
       radius="0"
       unit="px"
       method="auto"
       mode="F"
       chamfer_steps="1"
       flexible="false"
       use_knot_distance="true"
       apply_no_radius="true"
       apply_with_radius="true"
       only_selected="false"
       hide_knots="false" /><inkscape:path-effect
       effect="fillet_chamfer"
       id="path-effect61-0"
       is_visible="true"
       lpeversion="1"
       nodesatellites_param="F,0,0,1,0,0.26458333,0,1 @ F,0,0,1,0,0.26458333,0,1 @ F,0,0,1,0,0.26458333,0,1 @ F,0,0,1,0,0.26458333,0,1 @ F,0,0,1,0,0.26458333,0,1 @ F,0,0,1,0,0.26458333,0,1"
       radius="1"
       unit="px"
       method="auto"
       mode="F"
       chamfer_steps="1"
       flexible="false"
       use_knot_distance="true"
       apply_no_radius="true"
       apply_with_radius="true"
       only_selected="false"
       hide_knots="false" /><inkscape:path-effect
       effect="fillet_chamfer"
       id="path-effect61-1"
       is_visible="true"
       lpeversion="1"
       nodesatellites_param="F,0,0,1,0,0.26458333,0,1 @ F,0,0,1,0,0.26458333,0,1 @ F,0,0,1,0,0.26458333,0,1 @ F,0,0,1,0,0.26458333,0,1 @ F,0,0,1,0,0.26458333,0,1 @ F,0,0,1,0,0.26458333,0,1"
       radius="1"
       unit="px"
       method="auto"
       mode="F"
       chamfer_steps="1"
       flexible="false"
       use_knot_distance="true"
       apply_no_radius="true"
       apply_with_radius="true"
       only_selected="false"
       hide_knots="false" /><inkscape:path-effect
       effect="mirror_symmetry"
       start_point="114.49,205.49"
       end_point="113.89,211.15"
       center_point="114.19,208.32"
       id="path-effect122-7"
       is_visible="true"
       lpeversion="1.2"
       lpesatellites=""
       mode="free"
       discard_orig_path="false"
       fuse_paths="false"
       oposite_fuse="false"
       split_items="false"
       split_open="false"
       link_styles="false" /><inkscape:path-effect
       effect="mirror_symmetry"
       start_point="124.48,207.30206"
       end_point="124.48,209.14071"
       center_point="124.48,208.22138"
       id="path-effect128-1"
       is_visible="true"
       lpeversion="1.2"
       lpesatellites=""
       mode="free"
       discard_orig_path="false"
       fuse_paths="false"
       oposite_fuse="false"
       split_items="false"
       split_open="false"
       link_styles="false" /><inkscape:path-effect
       effect="mirror_symmetry"
       start_point="124.51,205.119"
       end_point="124.51,206.24447"
       center_point="124.51,205.68174"
       id="path-effect4-1"
       is_visible="true"
       lpeversion="1.2"
       lpesatellites=""
       mode="free"
       discard_orig_path="false"
       fuse_paths="false"
       oposite_fuse="false"
       split_items="false"
       split_open="false"
       link_styles="false" /><inkscape:path-effect
       effect="mirror_symmetry"
       start_point="109.42,213.36"
       end_point="109.42086,216.67392"
       center_point="109.42043,215.01696"
       id="path-effect9-5"
       is_visible="true"
       lpeversion="1.2"
       lpesatellites=""
       mode="free"
       discard_orig_path="false"
       fuse_paths="false"
       oposite_fuse="false"
       split_items="false"
       split_open="false"
       link_styles="false" /><inkscape:path-effect
       effect="mirror_symmetry"
       start_point="114.49,205.49"
       end_point="113.89,211.15"
       center_point="114.19,208.32"
       id="path-effect122-8"
       is_visible="true"
       lpeversion="1.2"
       lpesatellites=""
       mode="free"
       discard_orig_path="false"
       fuse_paths="false"
       oposite_fuse="false"
       split_items="false"
       split_open="false"
       link_styles="false" /><inkscape:path-effect
       effect="mirror_symmetry"
       start_point="124.48,207.30206"
       end_point="124.48,209.14071"
       center_point="124.48,208.22138"
       id="path-effect128-5"
       is_visible="true"
       lpeversion="1.2"
       lpesatellites=""
       mode="free"
       discard_orig_path="false"
       fuse_paths="false"
       oposite_fuse="false"
       split_items="false"
       split_open="false"
       link_styles="false" /><inkscape:path-effect
       effect="mirror_symmetry"
       start_point="124.51,205.119"
       end_point="124.51,206.24447"
       center_point="124.51,205.68174"
       id="path-effect4-7"
       is_visible="true"
       lpeversion="1.2"
       lpesatellites=""
       mode="free"
       discard_orig_path="false"
       fuse_paths="false"
       oposite_fuse="false"
       split_items="false"
       split_open="false"
       link_styles="false" /><inkscape:path-effect
       effect="mirror_symmetry"
       start_point="109.42,213.36"
       end_point="109.42086,216.67392"
       center_point="109.42043,215.01696"
       id="path-effect9-6"
       is_visible="true"
       lpeversion="1.2"
       lpesatellites=""
       mode="free"
       discard_orig_path="false"
       fuse_paths="false"
       oposite_fuse="false"
       split_items="false"
       split_open="false"
       link_styles="false" /><inkscape:path-effect
       effect="mirror_symmetry"
       start_point="124.51,205.119"
       end_point="124.51,206.24447"
       center_point="124.51,205.68174"
       id="path-effect4-3"
       is_visible="false"
       lpeversion="1.2"
       lpesatellites=""
       mode="free"
       discard_orig_path="false"
       fuse_paths="false"
       oposite_fuse="false"
       split_items="false"
       split_open="false"
       link_styles="false" /><inkscape:path-effect
       effect="mirror_symmetry"
       start_point="124.48,207.30206"
       end_point="124.48,209.14071"
       center_point="124.48,208.22138"
       id="path-effect128-7"
       is_visible="true"
       lpeversion="1.2"
       lpesatellites=""
       mode="free"
       discard_orig_path="false"
       fuse_paths="false"
       oposite_fuse="false"
       split_items="false"
       split_open="false"
       link_styles="false" /><inkscape:path-effect
       effect="copy_rotate"
       starting_point="159.43146,195.77569"
       origin="152.42998,199.41371"
       id="path-effect83-0"
       is_visible="true"
       lpeversion="1.2"
       lpesatellites=""
       method="normal"
       num_copies="5"
       starting_angle="27.456717"
       rotation_angle="72"
       gap="-0.01"
       copies_to_360="true"
       mirror_copies="false"
       split_items="false"
       link_styles="false" /></defs><g
     inkscape:groupmode="layer"
     id="layer5"
     inkscape:label="Fish 1"
     style="display:inline"><path
       id="path82"
       style="display:inline;fill:#ffffff;stroke:#ffffff;stroke-width:0.0147228;stroke-opacity:1"
       d="m 153.34841,201.39983 c -0.007,0.003 -0.0142,0.007 -0.0197,0.0113 -0.004,0.003 -0.006,0.006 -0.01,0.01 -0.0118,0.014 -0.0153,0.0343 -0.0118,0.0591 -0.0179,0.0718 -0.007,0.16786 0.0257,0.28251 0.0162,0.0573 0.0394,0.11921 0.0669,0.18477 0.0273,0.0656 0.0609,0.13454 0.0985,0.20683 0.15146,0.28931 0.38116,0.62749 0.65544,0.96217 0.27356,0.33541 0.59513,0.66759 0.92703,0.94801 0.24953,0.21083 0.50703,0.39274 0.75701,0.52328 0.0823,0.0429 0.16371,0.0796 0.24395,0.11085 l 2.4e-4,4.6e-4 0.61719,-0.64915 c -0.0463,-0.0606 -0.0924,-0.12081 -0.13982,-0.17952 l -4.6e-4,2.4e-4 c -0.0472,-0.059 -0.0945,-0.11654 -0.14163,-0.1739 -0.19242,-0.23021 -0.3914,-0.44518 -0.589,-0.64378 -0.17306,-0.17409 -0.34529,-0.33323 -0.5153,-0.48176 -0.0373,-0.0334 -0.0748,-0.0667 -0.11228,-0.0983 -0.25666,-0.21792 -0.50343,-0.40445 -0.73006,-0.55884 -0.1011,-0.0688 -0.19999,-0.13347 -0.29163,-0.18914 -0.0766,-0.0463 -0.15097,-0.0888 -0.21968,-0.12579 -0.069,-0.0369 -0.13414,-0.0688 -0.1938,-0.0961 -0.17972,-0.0818 -0.31611,-0.11922 -0.39184,-0.10854 -0.01,6e-4 -0.0181,0.003 -0.0257,0.005 z m -2.14408,4.44868 c 0.43939,0.83479 1.2156,0.83826 1.97808,0.71578 -0.7997,0.1712 -1.43079,0.20769 -2.08494,0.97268 0.43722,0.14064 0.8898,0.24831 1.35345,0.32286 0.24044,-0.44762 0.62678,-0.58289 0.96057,-0.81767 0.34248,-0.19069 0.61654,-0.36059 1.20567,-0.52978 0.31328,-0.0901 0.63794,-0.17291 0.99841,-0.2573 0.35132,-0.12293 0.69819,-0.26711 1.03777,-0.4315 0.36588,-0.1856 0.72245,-0.39511 1.06708,-0.62726 0.18129,0.0259 0.71414,-0.36882 1.0457,-0.97664 0.3428,-0.62732 0.61378,-1.34784 0.34335,-1.53705 -0.24783,-0.16421 -0.84682,0.28715 -1.36025,0.59207 -0.49937,0.29655 -0.90318,0.67997 -0.90215,0.8438 -0.25461,0.25339 -0.5261,0.49232 -0.81263,0.71459 -0.25934,0.21015 -0.53187,0.40647 -0.81647,0.5873 -0.25954,0.21116 -0.53491,0.3734 -0.8124,0.49088 -0.50073,0.21217 -0.87985,0.17542 -1.19297,0.1272 -0.3507,-0.0932 -0.71599,-0.13247 -0.9614,-0.5423 -0.33091,0.14265 -0.68013,0.26156 -1.04686,0.35236 z m 1.99967,-0.62905 c -0.23712,0.11307 0.66214,0.48054 1.19075,0.56114 0.10794,-0.0583 0.21571,-0.11998 0.32387,-0.18925 0.13193,-0.084 0.26407,-0.17666 0.39622,-0.27755 -0.8174,-0.16816 -1.32928,-0.18389 -1.8842,-0.10472 -0.0101,0.003 -0.019,0.007 -0.0266,0.0104 z m 1.57278,1.42078 c -0.057,0.0864 -0.11576,0.19019 -0.17098,0.30082 -0.0368,0.0738 -0.0719,0.15017 -0.10464,0.22676 -0.1802,0.42124 -0.27965,0.83758 -0.0806,0.71915 0.43063,-0.35883 0.76229,-0.74966 1.18527,-1.46904 -0.16344,0.0305 -0.32117,0.0667 -0.47191,0.10835 -0.12373,0.0342 -0.24175,0.0724 -0.35719,0.11393 z m 2.95146,-1.31346 -0.76381,0.46562 2.4e-4,4.6e-4 c 0.0136,0.0851 0.0333,0.17219 0.058,0.26164 0.009,0.0342 0.0188,0.0683 0.03,0.10263 l 2.4e-4,4.6e-4 c 0.0439,0.13785 0.0981,0.28005 0.16278,0.42324 0.0163,0.0358 0.0318,0.072 0.0501,0.10731 l 2.4e-4,4.6e-4 c 0.0341,0.0722 0.0712,0.14353 0.10885,0.21599 0.0256,0.0479 0.052,0.0957 0.0791,0.14352 0.0271,0.0478 0.0551,0.0953 0.0833,0.14304 l 2.4e-4,4.7e-4 c 0.0834,0.13874 0.1725,0.27601 0.26524,0.4096 0.002,0.003 0.005,0.008 0.007,0.0114 l 2.4e-4,4.6e-4 c 0.0317,0.0458 0.0644,0.0911 0.0968,0.13604 0.0324,0.0449 0.0655,0.0884 0.0985,0.13227 l 2.4e-4,4.6e-4 c 0.0329,0.0439 0.067,0.0863 0.10028,0.12901 0.0676,0.0845 0.13543,0.16628 0.20396,0.24461 0.0342,0.0391 0.0682,0.0777 0.10231,0.11513 l 2.4e-4,4.7e-4 c 0.034,0.0373 0.0676,0.0739 0.10156,0.10912 l 2.4e-4,4.6e-4 c 0.0339,0.0355 0.0671,0.0699 0.10079,0.10311 0.0335,0.0335 0.0663,0.0664 0.0991,0.0976 l 2.4e-4,4.6e-4 c 0.0659,0.0624 0.13047,0.11989 0.19314,0.17219 0.0627,0.0521 0.12362,0.0982 0.18171,0.13911 0.0583,0.0408 0.11463,0.0766 0.16686,0.10489 0.0525,0.0283 0.10177,0.0501 0.14708,0.0645 0.0117,0.003 0.0222,0.006 0.0332,0.009 l 2.4e-4,4.6e-4 c 0.0326,0.008 0.0627,0.0116 0.0905,0.0107 0.005,0.002 0.0112,0.004 0.0169,0.005 0.006,3.6e-4 0.009,0.002 0.0152,0.002 l 4.6e-4,-2.4e-4 c 0.0103,2.9e-4 0.0196,-0.002 0.028,-0.006 0.008,-0.004 0.0151,-0.0101 0.022,-0.0171 0.003,-0.004 0.007,-0.009 0.009,-0.0138 0.002,-0.005 0.005,-0.0104 0.006,-0.0167 0.007,-0.018 0.0112,-0.0406 0.0135,-0.067 8.6e-4,-0.0135 0.002,-0.0272 0.002,-0.0423 2.3e-4,-0.0455 -0.005,-0.0999 -0.0143,-0.16202 -0.006,-0.0415 -0.0144,-0.0862 -0.025,-0.13437 -0.0144,-0.0641 -0.0318,-0.13539 -0.0534,-0.21042 -0.0215,-0.075 -0.0476,-0.15616 -0.0768,-0.2408 -0.0352,-0.10133 -0.0774,-0.21112 -0.12316,-0.32444 -0.10337,-0.25402 -0.23389,-0.53449 -0.39294,-0.83127 -0.011,-0.0219 -0.0238,-0.0437 -0.0354,-0.066 -0.012,-0.0217 -0.0246,-0.043 -0.037,-0.0646 -0.10936,-0.19745 -0.22862,-0.39964 -0.36238,-0.60546 -0.0763,-0.1175 -0.15659,-0.23608 -0.2408,-0.35475 -0.0421,-0.0594 -0.0854,-0.11843 -0.12923,-0.17802 -0.0441,-0.0595 -0.0895,-0.11852 -0.13594,-0.17746 -0.0459,-0.0584 -0.0931,-0.11642 -0.14045,-0.1751 l 8.8e-4,-4.6e-4 c -0.0477,-0.0586 -0.0965,-0.1174 -0.1467,-0.17477 z m -3.12554,-6.1728 c 4.6e-4,0.008 0.002,0.0157 0.005,0.0222 0.002,0.005 0.004,0.007 0.006,0.0121 0.01,0.0155 0.0279,0.0252 0.0526,0.0295 0.0627,0.0392 0.15734,0.059 0.27661,0.0629 0.0595,0.002 0.12555,-6.3e-4 0.19641,-0.007 0.0708,-0.006 0.14677,-0.0163 0.22714,-0.0297 0.32195,-0.0546 0.71456,-0.16859 1.11762,-0.32603 0.40352,-0.15653 0.81882,-0.35971 1.18808,-0.58871 0.27762,-0.17217 0.53019,-0.36085 0.7316,-0.55825 0.0662,-0.0651 0.12633,-0.13109 0.1808,-0.19777 l 5.1e-4,-8e-5 -0.42666,-0.78757 c -0.0719,0.0253 -0.14345,0.0505 -0.21393,0.0775 l 8e-5,5e-4 c -0.0707,0.0267 -0.14002,0.0538 -0.20915,0.081 -0.27841,0.11186 -0.54434,0.23467 -0.79429,0.36123 -0.21904,0.11079 -0.42362,0.22541 -0.61741,0.34121 -0.0433,0.0251 -0.0866,0.0505 -0.1282,0.0764 -0.28656,0.17675 -0.54022,0.35381 -0.75709,0.52164 -0.0967,0.0749 -0.18873,0.14895 -0.27,0.21891 -0.0677,0.0585 -0.13114,0.11612 -0.18752,0.17006 -0.0564,0.0542 -0.10688,0.1063 -0.15132,0.1546 -0.13333,0.14565 -0.21106,0.26379 -0.22431,0.33913 -0.002,0.01 -0.003,0.018 -0.003,0.0261 z m 3.56839,3.41386 c 0.92971,-0.15993 1.17287,-0.89707 1.29201,-1.66008 -0.0843,0.81346 -0.24462,1.42494 0.28079,2.28346 0.26887,-0.37235 0.51112,-0.76951 0.7253,-1.18743 -0.35141,-0.36699 -0.36068,-0.77622 -0.48082,-1.16623 -0.0755,-0.38464 -0.15242,-0.69779 -0.13128,-1.31037 0.0111,-0.3258 0.0327,-0.66015 0.0638,-1.02906 -0.008,-0.37211 -0.0383,-0.74656 -0.0897,-1.12032 -0.0635,-0.40532 -0.15252,-0.80919 -0.26682,-1.20869 0.0807,-0.1644 -0.13008,-0.79315 -0.6057,-1.29631 -0.49068,-0.51987 -1.0922,-1.00025 -1.35572,-0.80152 -0.23276,0.18496 0.0114,0.8941 0.14275,1.47663 0.12773,0.56658 0.36759,1.06911 0.52372,1.11875 0.16232,0.32044 0.30565,0.65249 0.42851,0.99368 0.11972,0.31158 0.22222,0.63144 0.30625,0.95799 0.12062,0.31209 0.18983,0.62411 0.21581,0.92433 0.047,0.54178 -0.10506,0.89099 -0.24768,1.17389 -0.19696,0.30474 -0.34723,0.64001 -0.81284,0.74676 0.0334,0.3588 0.0386,0.72767 0.0116,1.10451 z m 0.0197,-2.09619 c 0.0343,0.26046 0.66163,-0.48124 0.90164,-0.95907 -0.0221,-0.12068 -0.0474,-0.24222 -0.0799,-0.3665 -0.0391,-0.15142 -0.0864,-0.30574 -0.14152,-0.46259 -0.41252,0.72542 -0.58567,1.20739 -0.68185,1.75962 -2.8e-4,0.0105 3.1e-4,0.0201 0.002,0.0285 z m 1.83726,-1.05676 c 0.0646,0.0809 0.14511,0.16886 0.23326,0.25558 0.0588,0.0578 0.12061,0.11476 0.18333,0.16958 0.34493,0.30156 0.71016,0.52479 0.65905,0.29886 -0.20819,-0.52044 -0.47741,-0.95664 -1.03087,-1.58122 -0.0215,0.16487 -0.0358,0.32606 -0.0428,0.4823 -0.006,0.12824 -0.006,0.25229 -0.002,0.37491 z m -0.33713,-3.21288 0.20681,0.87031 5e-4,-9e-5 c 0.0852,0.0134 0.17408,0.0215 0.26675,0.0257 0.0352,0.002 0.0708,0.003 0.10688,0.003 l 5.1e-4,-9e-5 c 0.14468,8.4e-4 0.29665,-0.007 0.45283,-0.024 0.0391,-0.004 0.0782,-0.008 0.11755,-0.0145 l 5.1e-4,-8e-5 c 0.0792,-0.0102 0.15851,-0.0234 0.23905,-0.0368 0.0535,-0.01 0.10705,-0.0199 0.16094,-0.0309 0.0538,-0.011 0.10765,-0.023 0.1618,-0.0351 l 5.1e-4,-9e-5 c 0.15771,-0.0364 0.31581,-0.0788 0.47152,-0.12568 0.004,-0.001 0.009,-0.002 0.013,-0.003 l 5.1e-4,-9e-5 c 0.0534,-0.016 0.10654,-0.0331 0.1593,-0.05 0.0527,-0.0169 0.10431,-0.035 0.15623,-0.0528 l 5.2e-4,-8e-5 c 0.0519,-0.0178 0.1028,-0.037 0.15368,-0.0555 0.10122,-0.0382 0.2,-0.0774 0.29566,-0.11839 0.0478,-0.0204 0.0949,-0.0408 0.14112,-0.0617 l 5.1e-4,-9e-5 c 0.046,-0.0208 0.0912,-0.0414 0.13517,-0.0629 l 5.1e-4,-8e-5 c 0.0442,-0.0213 0.0872,-0.0422 0.12921,-0.064 0.0422,-0.0215 0.0837,-0.0425 0.12345,-0.0641 l 5.1e-4,-8e-5 c 0.0797,-0.0434 0.15434,-0.087 0.22345,-0.13049 0.0689,-0.0435 0.13162,-0.0872 0.18845,-0.12983 0.0568,-0.0428 0.10827,-0.0853 0.15132,-0.12627 0.0431,-0.0412 0.0791,-0.0813 0.1068,-0.11995 0.006,-0.0102 0.0129,-0.0192 0.0188,-0.0288 l 5.1e-4,-8e-5 c 0.0177,-0.0285 0.0304,-0.0561 0.0381,-0.0828 0.003,-0.004 0.008,-0.009 0.01,-0.0147 0.002,-0.005 0.005,-0.008 0.007,-0.0137 l -9e-5,-5.1e-4 c 0.003,-0.01 0.004,-0.0194 0.003,-0.0283 -0.001,-0.009 -0.005,-0.0174 -0.009,-0.0262 -0.003,-0.004 -0.007,-0.009 -0.0103,-0.013 -0.004,-0.003 -0.008,-0.008 -0.0139,-0.0113 -0.0151,-0.0118 -0.0352,-0.0232 -0.0595,-0.0336 -0.0126,-0.005 -0.0253,-0.0101 -0.0397,-0.0149 -0.0432,-0.0143 -0.0965,-0.0263 -0.15852,-0.0365 -0.0414,-0.007 -0.0864,-0.0129 -0.1355,-0.0178 -0.0654,-0.006 -0.1386,-0.0116 -0.21664,-0.0142 -0.078,-0.003 -0.16322,-0.003 -0.25274,-0.001 -0.10725,0.002 -0.22469,0.008 -0.34662,0.0169 -0.27353,0.0198 -0.58061,0.0573 -0.91201,0.11683 -0.0242,0.004 -0.049,0.009 -0.0737,0.0133 -0.0243,0.005 -0.0485,0.0101 -0.0729,0.0152 -0.22159,0.043 -0.45074,0.0939 -0.68782,0.15755 -0.13531,0.0362 -0.27291,0.076 -0.4118,0.11938 -0.0695,0.0217 -0.13903,0.0447 -0.20923,0.0679 -0.0702,0.0236 -0.14039,0.0485 -0.21079,0.0745 -0.0697,0.0256 -0.13947,0.0525 -0.20993,0.0795 l -1.7e-4,-9.9e-4 c -0.0705,0.0273 -0.14147,0.0555 -0.21154,0.0855 z m -6.83652,1.06506 c 0.008,0.002 0.0156,0.003 0.0226,0.002 0.005,-2.5e-4 0.008,-0.002 0.0134,-0.002 0.0178,-0.004 0.0325,-0.0188 0.0443,-0.0409 0.0567,-0.0475 0.10468,-0.13142 0.14528,-0.24364 0.0205,-0.0559 0.0382,-0.1196 0.0545,-0.18882 0.0164,-0.0691 0.0298,-0.14464 0.0419,-0.2252 0.0475,-0.32309 0.0605,-0.73169 0.0353,-1.16367 -0.0242,-0.43215 -0.0891,-0.88991 -0.19276,-1.31186 -0.0779,-0.31724 -0.17935,-0.61575 -0.30485,-0.8683 -0.0414,-0.0831 -0.0856,-0.16066 -0.13222,-0.23307 l 8e-5,-5.1e-4 -0.88087,0.1624 c 0.002,0.0762 0.004,0.15206 0.008,0.22741 l 5.1e-4,8e-5 c 0.004,0.0755 0.008,0.14981 0.0124,0.22394 0.0203,0.29935 0.055,0.59022 0.0981,0.86704 0.0377,0.24256 0.0835,0.47254 0.13372,0.69263 0.0105,0.0489 0.0213,0.0979 0.033,0.14553 0.0796,0.32716 0.16955,0.62311 0.26215,0.88124 0.0414,0.11506 0.0833,0.22552 0.12476,0.32443 0.0347,0.0825 0.0699,0.16061 0.10379,0.23089 0.0341,0.0703 0.0681,0.13451 0.10028,0.19169 0.0973,0.17182 0.18566,0.28225 0.25321,0.31813 0.008,0.005 0.0162,0.008 0.024,0.0107 z m 4.34946,-2.3388 c 0.1352,-0.93363 -0.49072,-1.39268 -1.17958,-1.74176 0.74761,0.33155 1.27962,0.67297 2.25848,0.43857 -0.27105,-0.37077 -0.57391,-0.7239 -0.90519,-1.05673 -0.45762,0.2208 -0.84968,0.10315 -1.25773,0.0969 -0.38915,-0.047 -0.71074,-0.0707 -1.2868,-0.28007 -0.30641,-0.11126 -0.61774,-0.23509 -0.95897,-0.3787 -0.35648,-0.10704 -0.72185,-0.19429 -1.09321,-0.26089 -0.40509,-0.0649 -0.81671,-0.105 -1.23198,-0.11975 -0.13143,-0.12752 -0.79453,-0.12138 -1.42003,0.17547 -0.64606,0.30602 -1.28881,0.72966 -1.18124,1.04169 0.10398,0.27851 0.85387,0.26543 1.44848,0.32053 0.57831,0.0536 1.13036,-0.0192 1.22582,-0.15237 0.35492,-0.0553 0.71501,-0.0891 1.07747,-0.10047 0.33332,-0.0176 0.6692,-0.0162 1.00574,0.005 0.33409,-0.0183 0.65222,0.0123 0.94578,0.0804 0.5298,0.12267 0.81491,0.37525 1.03989,0.59831 0.22897,0.28149 0.50139,0.52801 0.45903,1.00382 0.35156,0.0791 0.70398,0.18817 1.05405,0.33027 z m -1.98751,-0.66647 c 0.2583,0.0479 -0.25323,-0.77796 -0.63351,-1.15387 -0.12161,-0.0163 -0.24503,-0.0297 -0.37325,-0.0373 -0.1561,-0.01 -0.31748,-0.0123 -0.48369,-0.008 0.56245,0.61649 0.96732,0.9301 1.4628,1.19222 0.01,0.004 0.0192,0.006 0.0276,0.007 z m -0.43729,-2.07389 c 0.0969,-0.0364 0.20543,-0.0858 0.31515,-0.14287 0.0732,-0.038 0.14641,-0.0792 0.21793,-0.12195 0.39339,-0.23486 0.71856,-0.51324 0.48789,-0.53444 -0.5593,0.0372 -1.05735,0.15842 -1.82238,0.49179 0.15015,0.0714 0.29903,0.13482 0.44547,0.18972 0.1202,0.0451 0.23814,0.0835 0.35593,0.11779 z m -3.15982,-0.67221 0.89162,0.0723 8e-5,-5.1e-4 c 0.0391,-0.0768 0.0742,-0.15891 0.10689,-0.24575 0.013,-0.0328 0.0249,-0.0663 0.0361,-0.10066 l 7e-5,-5.1e-4 c 0.0455,-0.13733 0.0853,-0.28421 0.11708,-0.43809 0.008,-0.0386 0.0166,-0.0769 0.0225,-0.11628 l 8e-5,-5.2e-4 c 0.0148,-0.0785 0.0268,-0.15796 0.0389,-0.23871 0.007,-0.0538 0.0142,-0.10795 0.0204,-0.16259 0.006,-0.0546 0.0114,-0.1095 0.0166,-0.16472 l 8e-5,-5.1e-4 c 0.0141,-0.16124 0.0227,-0.32469 0.0262,-0.48728 1.5e-4,-0.004 5.6e-4,-0.009 0.001,-0.0134 l 8e-5,-5.1e-4 c 0.001,-0.0557 0.001,-0.11154 0.002,-0.16698 2.3e-4,-0.0554 -0.001,-0.11001 -0.002,-0.16489 l 7e-5,-5.2e-4 c -8.6e-4,-0.0548 -0.003,-0.10919 -0.005,-0.1633 -0.005,-0.10807 -0.0118,-0.21414 -0.0212,-0.31778 -0.005,-0.0518 -0.01,-0.10292 -0.0151,-0.15329 l 8e-5,-5.1e-4 c -0.006,-0.0502 -0.0112,-0.0996 -0.018,-0.14798 l 8e-5,-5.1e-4 c -0.007,-0.0486 -0.0132,-0.0959 -0.0209,-0.14267 -0.007,-0.0468 -0.0146,-0.0927 -0.0228,-0.13719 l 8e-5,-5.2e-4 c -0.0166,-0.0892 -0.0351,-0.17368 -0.055,-0.25283 -0.0201,-0.079 -0.0423,-0.15213 -0.0652,-0.21935 -0.0232,-0.0673 -0.0477,-0.12934 -0.0733,-0.18293 -0.0259,-0.0537 -0.0529,-0.10037 -0.0811,-0.13864 -0.008,-0.009 -0.0143,-0.0182 -0.0216,-0.0268 l 8e-5,-5.2e-4 c -0.0216,-0.0256 -0.0439,-0.0462 -0.067,-0.0618 -0.002,-0.004 -0.007,-0.0101 -0.011,-0.0137 -0.005,-0.004 -0.006,-0.007 -0.0109,-0.0107 l -5.1e-4,-7e-5 c -0.008,-0.006 -0.0173,-0.01 -0.0259,-0.012 -0.009,-0.002 -0.0181,-6.9e-4 -0.0278,8.8e-4 -0.004,0.001 -0.0109,0.003 -0.0155,0.006 -0.004,0.002 -0.01,0.006 -0.015,0.01 -0.0159,0.0108 -0.033,0.0263 -0.0503,0.0462 -0.009,0.0104 -0.0174,0.0209 -0.0264,0.0331 -0.0269,0.0367 -0.0548,0.0837 -0.0837,0.1395 -0.0192,0.0373 -0.0389,0.0782 -0.0588,0.12338 -0.026,0.0603 -0.0539,0.12823 -0.0805,0.20165 -0.0267,0.0733 -0.0533,0.15429 -0.0794,0.23994 -0.0311,0.10266 -0.0615,0.21626 -0.0911,0.33487 -0.0657,0.26626 -0.12495,0.56989 -0.17071,0.90347 -0.004,0.0242 -0.006,0.0494 -0.0101,0.0742 -0.003,0.0246 -0.005,0.0493 -0.008,0.074 -0.0276,0.22403 -0.0499,0.4577 -0.0627,0.70283 -0.007,0.13989 -0.0121,0.28304 -0.0137,0.42854 -8.2e-4,0.0728 -5e-4,0.14603 -8e-5,0.21998 7.1e-4,0.074 0.003,0.14851 0.006,0.22347 0.003,0.0742 0.007,0.14888 0.0107,0.22422 l -9.9e-4,-1.5e-4 c 0.004,0.0755 0.009,0.1517 0.016,0.22762 z m -1.09967,6.83104 c 0.004,-0.007 0.007,-0.0139 0.009,-0.0208 0.001,-0.005 8.9e-4,-0.008 0.002,-0.0133 0.001,-0.0182 -0.008,-0.0368 -0.0252,-0.0547 -0.0277,-0.0686 -0.0926,-0.14017 -0.18682,-0.21346 -0.0468,-0.0368 -0.10195,-0.0733 -0.16276,-0.11014 -0.0607,-0.037 -0.12834,-0.073 -0.20122,-0.10946 -0.29259,-0.14504 -0.67719,-0.28361 -1.09581,-0.39316 -0.41846,-0.11055 -0.87388,-0.19028 -1.30721,-0.22205 -0.3258,-0.0239 -0.64104,-0.0197 -0.92001,0.0216 -0.0918,0.0137 -0.17927,0.0318 -0.26252,0.0537 l -4.6e-4,-2.4e-4 -0.11775,0.88795 c 0.073,0.0218 0.14577,0.0434 0.21863,0.063 l 2.3e-4,-4.5e-4 c 0.0729,0.02 0.14493,0.0388 0.2168,0.0574 0.29098,0.0731 0.57832,0.1301 0.85491,0.17463 0.24234,0.0391 0.47522,0.0666 0.70006,0.0869 0.0498,0.005 0.0997,0.01 0.14862,0.0135 0.33573,0.0254 0.64501,0.0313 0.91911,0.023 0.12222,-0.004 0.24024,-0.01 0.34711,-0.0184 0.0892,-0.008 0.17435,-0.0169 0.25166,-0.0274 0.0775,-0.0107 0.14896,-0.0232 0.2133,-0.0361 0.19348,-0.0395 0.3258,-0.0893 0.3808,-0.14251 0.008,-0.006 0.0131,-0.0128 0.0176,-0.0195 z m -0.88027,-4.85931 c -0.84615,-0.41709 -1.47615,0.0363 -2.02102,0.58361 0.54634,-0.60856 1.03546,-1.00903 1.11502,-2.01241 -0.43638,0.14321 -0.86582,0.32212 -1.28474,0.53434 0.0686,0.50345 -0.16445,0.83997 -0.2965,1.22611 -0.16498,0.35557 -0.28684,0.65412 -0.66401,1.13728 -0.20049,0.25703 -0.41447,0.51486 -0.65649,0.79501 -0.21197,0.30595 -0.40785,0.62648 -0.58595,0.95908 -0.1869,0.36521 -0.35223,0.7443 -0.49459,1.13468 -0.16189,0.0856 -0.36096,0.71814 -0.27193,1.40475 0.0914,0.70901 0.29568,1.45121 0.62568,1.44533 0.29702,-0.0128 0.5163,-0.73006 0.75245,-1.27853 0.22969,-0.53345 0.33102,-1.08099 0.23389,-1.21292 0.057,-0.35466 0.13624,-0.70753 0.2374,-1.05578 0.0863,-0.32244 0.19137,-0.64146 0.31533,-0.95504 0.0859,-0.32338 0.21327,-0.61649 0.36872,-0.87465 0.28038,-0.46596 0.6087,-0.65907 0.89036,-0.80411 0.33848,-0.13077 0.65711,-0.31368 1.09654,-0.12637 0.18387,-0.3099 0.3965,-0.61137 0.63982,-0.90039 z m -1.24802,1.68429 c 0.12538,-0.23086 -0.81814,4.3e-4 -1.29316,0.24593 -0.053,0.11064 -0.104,0.22385 -0.15078,0.34347 -0.0574,0.14549 -0.10981,0.29814 -0.15741,0.45744 0.76013,-0.34441 1.1835,-0.63256 1.5859,-1.02279 0.006,-0.008 0.0116,-0.0165 0.0154,-0.0241 z m -2.10752,-0.22498 c -0.005,-0.10339 -0.0181,-0.22191 -0.0385,-0.34388 -0.0136,-0.0813 -0.0301,-0.16373 -0.0486,-0.24495 -0.10181,-0.44671 -0.26608,-0.84199 -0.35752,-0.62916 -0.13748,0.54341 -0.17607,1.05455 -0.0954,1.88516 0.11431,-0.12074 0.22063,-0.24273 0.3181,-0.36504 0.08,-0.10039 0.15301,-0.20068 0.222,-0.30211 z m -1.61575,2.79743 0.34425,-0.82565 -4.6e-4,-2.3e-4 c -0.061,-0.0609 -0.12819,-0.1197 -0.20068,-0.1776 -0.0272,-0.0225 -0.0554,-0.0442 -0.0846,-0.0654 l -4.6e-4,-2.3e-4 c -0.11655,-0.0857 -0.24395,-0.16892 -0.38047,-0.24673 -0.0343,-0.0194 -0.068,-0.0395 -0.10363,-0.0574 l -4.7e-4,-2.3e-4 c -0.07,-0.0383 -0.14196,-0.0743 -0.215,-0.11076 -0.0489,-0.0237 -0.0983,-0.0468 -0.14834,-0.0696 -0.05,-0.0228 -0.10062,-0.0447 -0.15151,-0.0667 l -4.6e-4,-2.3e-4 c -0.149,-0.0633 -0.3018,-0.12192 -0.45534,-0.17548 -0.004,-0.001 -0.008,-0.003 -0.0124,-0.005 l -4.6e-4,-2.3e-4 c -0.0526,-0.0185 -0.10562,-0.0359 -0.1583,-0.0531 -0.0526,-0.0173 -0.10497,-0.033 -0.15742,-0.0491 l -4.7e-4,-2.3e-4 c -0.0524,-0.0161 -0.10491,-0.0305 -0.15695,-0.0454 -0.10432,-0.0286 -0.2073,-0.0549 -0.30879,-0.078 -0.0507,-0.0116 -0.10082,-0.0228 -0.15044,-0.033 l -4.7e-4,-2.3e-4 c -0.0495,-0.0102 -0.0982,-0.0201 -0.1463,-0.0286 l -4.7e-4,-2.4e-4 c -0.0482,-0.009 -0.0953,-0.0171 -0.14215,-0.0242 -0.0468,-0.007 -0.0927,-0.0148 -0.13752,-0.0207 l -4.6e-4,-2.3e-4 c -0.0899,-0.0117 -0.17602,-0.0203 -0.25747,-0.0258 -0.0813,-0.005 -0.15774,-0.007 -0.22877,-0.006 -0.0712,0.001 -0.13776,0.005 -0.19664,0.0132 -0.0591,0.008 -0.1118,0.0193 -0.15691,0.0343 -0.0112,0.004 -0.0217,0.008 -0.0322,0.0122 l -4.7e-4,-2.3e-4 c -0.031,0.0127 -0.0575,0.0275 -0.0795,0.0446 -0.005,9e-4 -0.0116,0.003 -0.0164,0.006 -0.005,0.003 -0.008,0.004 -0.0136,0.007 l -2.3e-4,4.6e-4 c -0.008,0.006 -0.0145,0.0134 -0.0194,0.0209 -0.004,0.008 -0.006,0.017 -0.008,0.0267 0,0.004 -1.3e-4,0.0114 6.7e-4,0.0165 9e-4,0.005 0.002,0.0112 0.005,0.0173 0.005,0.0184 0.0148,0.0395 0.0284,0.0622 0.007,0.0114 0.0145,0.023 0.0234,0.0354 0.0266,0.037 0.0626,0.078 0.10682,0.12266 0.0295,0.0298 0.0623,0.0612 0.0992,0.094 0.0493,0.0434 0.10531,0.0908 0.16691,0.13882 0.0615,0.0481 0.13027,0.0984 0.20366,0.14969 0.088,0.0613 0.18667,0.12533 0.29034,0.19008 0.23294,0.14475 0.50339,0.29494 0.8065,0.44154 0.0218,0.0112 0.045,0.0214 0.0674,0.0326 0.0225,0.0105 0.0452,0.0203 0.0679,0.0306 0.20454,0.0955 0.41987,0.18894 0.64906,0.27683 0.13077,0.0502 0.26545,0.099 0.40333,0.14547 0.069,0.0233 0.13872,0.0456 0.20918,0.068 0.0706,0.0222 0.1421,0.0433 0.21429,0.0637 0.0715,0.0203 0.14371,0.0395 0.21655,0.0591 l -4.4e-4,9e-4 c 0.073,0.0194 0.14707,0.0383 0.22141,0.0551 z m 6.1569,3.15676 c -0.005,-0.006 -0.0109,-0.0114 -0.0169,-0.0152 -0.004,-0.003 -0.008,-0.003 -0.012,-0.006 -0.017,-0.007 -0.0374,-0.004 -0.0598,0.007 -0.0738,0.005 -0.16194,0.0448 -0.26075,0.11171 -0.0494,0.0331 -0.1012,0.0743 -0.15504,0.12076 -0.0539,0.0463 -0.10914,0.0995 -0.16629,0.15755 -0.22835,0.23344 -0.47899,0.5564 -0.71254,0.92068 -0.23445,0.36382 -0.451,0.77231 -0.61513,1.17462 -0.12341,0.30246 -0.21684,0.60357 -0.26375,0.88165 -0.0153,0.0916 -0.0252,0.18032 -0.03,0.26627 l -3.6e-4,3.7e-4 0.80809,0.38638 c 0.0433,-0.0627 0.0863,-0.12522 0.12752,-0.18845 l -3.6e-4,-3.6e-4 c 0.0415,-0.0631 0.0816,-0.12586 0.12162,-0.18844 0.15949,-0.25414 0.30244,-0.50981 0.43026,-0.75911 0.11209,-0.21839 0.21023,-0.43136 0.29894,-0.63895 0.0202,-0.0458 0.0403,-0.0917 0.0588,-0.13716 0.12794,-0.31144 0.22908,-0.60377 0.30589,-0.86703 0.0342,-0.1174 0.0651,-0.23144 0.0898,-0.3358 0.0204,-0.0871 0.0378,-0.17103 0.0517,-0.2478 0.0137,-0.077 0.024,-0.14883 0.0316,-0.21403 0.0223,-0.1962 0.0157,-0.33746 -0.0179,-0.4062 -0.004,-0.009 -0.008,-0.0164 -0.0131,-0.0227 z m -4.89351,-0.66442 c -0.65814,0.67585 -0.42158,1.41514 -0.0695,2.10245 -0.40994,-0.70766 -0.63966,-1.29658 -1.56935,-1.68231 0.001,0.45927 0.0388,0.92298 0.11117,1.38697 0.50001,0.0904 0.74805,0.41598 1.07449,0.66088 0.28718,0.26679 0.53346,0.47494 0.87642,0.98295 0.1825,0.27011 0.36158,0.55329 0.55324,0.87004 0.22547,0.29613 0.46978,0.58147 0.73106,0.85364 0.28958,0.29061 0.59903,0.56499 0.92631,0.82101 0.0314,0.18043 0.57145,0.56522 1.25197,0.69272 0.70255,0.13217 1.47155,0.16724 1.56793,-0.14843 0.0796,-0.28644 -0.53478,-0.71663 -0.98343,-1.11071 -0.43636,-0.38329 -0.92579,-0.64886 -1.08128,-0.59725 -0.31967,-0.16384 -0.6308,-0.34822 -0.93074,-0.55203 -0.28,-0.18171 -0.55093,-0.38023 -0.81086,-0.59502 -0.28102,-0.1816 -0.52041,-0.39335 -0.7179,-0.62096 -0.35652,-0.41065 -0.43872,-0.78258 -0.48962,-1.09527 -0.0198,-0.36232 -0.0953,-0.72188 0.21867,-1.08192 -0.23792,-0.27064 -0.45893,-0.56602 -0.65861,-0.88675 z m 1.2162,1.70741 c -0.18081,-0.19058 -0.25241,0.77823 -0.16571,1.30587 0.0888,0.0846 0.18076,0.16808 0.28006,0.24954 0.12065,0.0995 0.24962,0.19656 0.38641,0.29106 -0.0927,-0.82935 -0.23588,-1.32105 -0.48266,-1.82434 -0.006,-0.009 -0.0121,-0.0161 -0.0181,-0.0221 z m -0.86523,1.93485 c -0.0998,-0.0275 -0.21665,-0.0513 -0.33894,-0.0697 -0.0815,-0.0122 -0.16502,-0.022 -0.24799,-0.0294 -0.4563,-0.0412 -0.883,-0.007 -0.70884,0.1456 0.47433,0.29867 0.94853,0.49333 1.7634,0.6733 -0.0795,-0.14602 -0.16268,-0.28483 -0.24888,-0.41533 -0.0708,-0.1071 -0.14358,-0.20753 -0.21872,-0.3045 z m 2.16123,2.40112 -0.67886,-0.58254 -3.6e-4,3.7e-4 c -0.0768,0.0392 -0.15347,0.0849 -0.23093,0.13598 -0.0298,0.0189 -0.0592,0.039 -0.0883,0.0602 l -3.7e-4,3.7e-4 c -0.11754,0.0844 -0.23603,0.17981 -0.35222,0.28561 -0.029,0.0266 -0.0586,0.0524 -0.0866,0.0808 l -3.7e-4,3.7e-4 c -0.0581,0.0548 -0.1145,0.11207 -0.17177,0.17026 -0.0376,0.0392 -0.0749,0.079 -0.11206,0.11957 -0.0371,0.0405 -0.0736,0.0819 -0.11029,0.12347 l -3.7e-4,3.7e-4 c -0.10619,0.12215 -0.2092,0.24934 -0.30759,0.37882 -0.002,0.003 -0.006,0.007 -0.009,0.0103 l -3.6e-4,3.7e-4 c -0.0338,0.0443 -0.0668,0.0894 -0.0995,0.13413 -0.0327,0.0447 -0.0638,0.0896 -0.0954,0.13453 l -3.6e-4,3.7e-4 c -0.0315,0.0449 -0.0614,0.0904 -0.0917,0.13524 -0.0595,0.0904 -0.1163,0.18018 -0.16962,0.26956 -0.0266,0.0446 -0.0528,0.0889 -0.0779,0.13288 l -3.7e-4,3.7e-4 c -0.025,0.0439 -0.0494,0.0872 -0.0724,0.13031 l -3.7e-4,3.7e-4 c -0.0233,0.0432 -0.0457,0.0854 -0.0669,0.12773 -0.0215,0.0422 -0.0427,0.0836 -0.0622,0.12438 l -3.6e-4,3.7e-4 c -0.0389,0.0819 -0.0737,0.16113 -0.10408,0.2369 -0.0302,0.0757 -0.0552,0.14792 -0.0761,0.2158 -0.0208,0.068 -0.0374,0.13269 -0.0482,0.19111 -0.0106,0.0587 -0.0162,0.11228 -0.0159,0.15981 8.1e-4,0.012 8.3e-4,0.0231 0.002,0.0344 l -3.6e-4,3.7e-4 c 0.002,0.0334 0.008,0.0632 0.0178,0.0894 -6.6e-4,0.005 -6.1e-4,0.012 8.5e-4,0.0175 0.001,0.006 7.8e-4,0.009 0.003,0.0151 l 3.8e-4,3.6e-4 c 0.003,0.01 0.008,0.018 0.0139,0.0249 0.006,0.006 0.0142,0.0112 0.023,0.0156 0.004,0.001 0.0109,0.004 0.0159,0.004 0.005,6.7e-4 0.0113,0.001 0.0179,9.2e-4 0.0192,6.2e-4 0.0421,-0.002 0.0679,-0.008 0.0131,-0.003 0.0264,-0.007 0.0409,-0.0113 0.0434,-0.0139 0.0935,-0.0355 0.14967,-0.0637 0.0375,-0.0188 0.0775,-0.0404 0.12007,-0.0653 0.0565,-0.0335 0.11894,-0.0721 0.18361,-0.11585 0.0647,-0.0436 0.13382,-0.0935 0.20529,-0.14744 0.0855,-0.0648 0.17688,-0.1388 0.2705,-0.21739 0.20965,-0.1768 0.43606,-0.38761 0.66916,-0.63058 0.0174,-0.0172 0.0342,-0.0362 0.0518,-0.0541 0.0169,-0.0181 0.0333,-0.0367 0.05,-0.0551 0.15399,-0.16502 0.30943,-0.34092 0.46384,-0.53174 0.0882,-0.10885 0.17614,-0.22188 0.26298,-0.33864 0.0435,-0.0584 0.0862,-0.11784 0.12937,-0.17792 0.0429,-0.0603 0.085,-0.12177 0.12677,-0.18412 0.0414,-0.0617 0.082,-0.12448 0.12313,-0.18769 l 7.1e-4,7e-4 c 0.041,-0.0635 0.0818,-0.12805 0.12088,-0.19353 z"
       inkscape:path-effect="#path-effect83"
       inkscape:original-d="m 152.3292,201.59958 c -0.008,-8.7e-4 -0.0158,-4.7e-4 -0.0227,0.001 -0.005,0.001 -0.008,0.003 -0.0129,0.004 -0.0169,0.007 -0.0294,0.0234 -0.0377,0.047 -0.049,0.0554 -0.084,0.14552 -0.10748,0.26252 -0.012,0.0583 -0.02,0.12395 -0.0258,0.19482 -0.006,0.0708 -0.008,0.14746 -0.008,0.22893 0.001,0.32656 0.0489,0.73255 0.13797,1.156 0.0881,0.42376 0.22029,0.8668 0.38551,1.26866 0.12421,0.30214 0.26883,0.58228 0.43046,0.81338 0.0533,0.076 0.10855,0.14616 0.16537,0.21084 v 5.2e-4 l 0.84697,-0.29146 c -0.0131,-0.0751 -0.0263,-0.14981 -0.0413,-0.22376 h -5.1e-4 c -0.0147,-0.0741 -0.0301,-0.14697 -0.0455,-0.21962 -0.0646,-0.293 -0.14205,-0.5755 -0.22582,-0.84284 -0.0733,-0.23427 -0.15275,-0.4549 -0.23513,-0.66508 -0.0177,-0.0468 -0.0356,-0.0937 -0.0543,-0.13901 -0.12727,-0.31171 -0.26024,-0.59101 -0.39016,-0.83251 -0.058,-0.10764 -0.11592,-0.21064 -0.17157,-0.3023 -0.0466,-0.0764 -0.093,-0.14844 -0.13694,-0.21291 -0.0442,-0.0645 -0.0873,-0.1229 -0.12764,-0.17467 -0.12176,-0.15545 -0.22553,-0.25153 -0.29766,-0.27698 -0.009,-0.004 -0.0173,-0.006 -0.0253,-0.007 z m -3.95376,2.95899 c 0.005,0.94335 0.69217,1.30432 1.42524,1.5472 -0.78856,-0.21681 -1.36539,-0.47541 -2.29857,-0.0982 0.32312,0.32639 0.67508,0.63061 1.05213,0.91054 0.41974,-0.28634 0.82493,-0.22824 1.22938,-0.28267 0.39182,-0.0113 0.71335,-0.0357 1.31413,0.0858 0.31954,0.0645 0.64581,0.14071 1.00459,0.23203 0.36842,0.0529 0.7427,0.0849 1.11983,0.0956 0.41024,0.004 0.82325,-0.0175 1.2361,-0.0646 0.14892,0.10658 0.80375,0.002 1.37821,-0.38448 0.59343,-0.3986 1.16611,-0.91302 1.01338,-1.20561 -0.1442,-0.25998 -0.88383,-0.13564 -1.48002,-0.1018 -0.57986,0.0329 -1.11497,0.18694 -1.18959,0.33279 -0.34276,0.10746 -0.69384,0.19429 -1.05058,0.25942 -0.32702,0.0669 -0.65937,0.11545 -0.99529,0.14469 -0.32767,0.0677 -0.64682,0.0847 -0.94723,0.061 -0.54215,-0.0426 -0.86162,-0.25002 -1.11724,-0.43718 -0.26824,-0.24436 -0.57426,-0.44767 -0.60306,-0.92449 -0.35941,-0.026 -0.72412,-0.0815 -1.09141,-0.17002 z m 2.06447,0.36381 c -0.26255,-0.009 0.36599,0.73171 0.79789,1.04696 0.12268,-0.002 0.24673,-0.007 0.37465,-0.0186 0.15579,-0.0137 0.31578,-0.035 0.47956,-0.0636 -0.64779,-0.5261 -1.09476,-0.77608 -1.62368,-0.96169 -0.0103,-0.002 -0.0199,-0.003 -0.0284,-0.003 z m 0.74053,1.98592 c -0.0904,0.0504 -0.19041,0.11539 -0.29043,0.1881 -0.0667,0.0485 -0.13302,0.10011 -0.1974,0.15297 -0.35413,0.2907 -0.63434,0.61429 -0.40308,0.60099 0.54757,-0.11985 1.02208,-0.31374 1.7291,-0.75706 -0.15909,-0.0483 -0.31574,-0.0889 -0.46871,-0.12144 -0.12556,-0.0267 -0.24791,-0.0472 -0.36948,-0.0636 z m 3.22461,0.19534 -0.89246,0.061 v 5.1e-4 c -0.0272,0.0818 -0.0498,0.16818 -0.0692,0.2589 -0.008,0.0344 -0.0148,0.0693 -0.0207,0.1049 v 5.2e-4 c -0.0246,0.14257 -0.0421,0.29372 -0.0507,0.45062 -0.002,0.0393 -0.005,0.0785 -0.005,0.11834 v 5.2e-4 c -0.003,0.0798 -0.003,0.16019 -0.003,0.24184 6.5e-4,0.0543 0.002,0.10886 0.004,0.16382 0.002,0.0549 0.005,0.10997 0.008,0.16536 v 5.2e-4 c 0.01,0.16155 0.0258,0.32446 0.0465,0.48576 4.5e-4,0.004 7.9e-4,0.009 10e-4,0.0134 v 5.2e-4 c 0.007,0.0553 0.0151,0.11052 0.0232,0.16536 0.008,0.0548 0.0174,0.10864 0.0264,0.16278 v 5.2e-4 c 0.009,0.0541 0.0196,0.10748 0.0295,0.16071 0.021,0.10612 0.0435,0.21 0.0682,0.3111 0.0123,0.0505 0.0247,0.10036 0.0377,0.14934 v 5.2e-4 c 0.013,0.0488 0.0259,0.0968 0.0398,0.14366 v 5.2e-4 c 0.0137,0.0471 0.0273,0.0929 0.0419,0.13797 0.0143,0.0452 0.0282,0.0895 0.0429,0.13229 v 5.2e-4 c 0.0297,0.0857 0.0605,0.16654 0.092,0.24185 0.0316,0.0751 0.0644,0.14416 0.0971,0.20722 0.0329,0.0631 0.0664,0.12082 0.0997,0.17001 0.0336,0.0493 0.0672,0.0914 0.10077,0.12506 0.009,0.008 0.0168,0.0159 0.0253,0.0233 v 5.2e-4 c 0.0252,0.0221 0.0503,0.0392 0.0754,0.0512 0.003,0.004 0.008,0.009 0.0129,0.0119 0.005,0.003 0.007,0.006 0.0124,0.009 h 5.2e-4 c 0.009,0.005 0.0185,0.007 0.0274,0.008 0.009,2.3e-4 0.018,-0.002 0.0274,-0.005 0.004,-0.002 0.0103,-0.005 0.0145,-0.008 0.004,-0.003 0.009,-0.007 0.0134,-0.0119 0.0141,-0.013 0.0287,-0.0309 0.0429,-0.0532 0.007,-0.0116 0.0141,-0.0233 0.0212,-0.0367 0.0212,-0.0403 0.0418,-0.0909 0.062,-0.15038 0.0135,-0.0397 0.0269,-0.0831 0.0398,-0.13074 0.0168,-0.0635 0.0342,-0.13481 0.0496,-0.21136 0.0155,-0.0765 0.0298,-0.1605 0.0429,-0.24908 0.0155,-0.10614 0.0287,-0.223 0.0403,-0.34468 0.0254,-0.27307 0.0389,-0.58213 0.0346,-0.91881 3.2e-4,-0.0245 -0.001,-0.0498 -0.001,-0.0749 -6.5e-4,-0.0248 -0.002,-0.0495 -0.003,-0.0744 -0.006,-0.22564 -0.0186,-0.46004 -0.0424,-0.70435 -0.0135,-0.13943 -0.0301,-0.28169 -0.0501,-0.42582 -0.01,-0.0721 -0.0212,-0.14448 -0.0326,-0.21755 -0.0117,-0.0731 -0.0248,-0.14645 -0.0388,-0.22015 -0.0138,-0.073 -0.0289,-0.14621 -0.0439,-0.22014 h 10e-4 c -0.0153,-0.074 -0.0315,-0.14867 -0.0496,-0.22272 z"
       transform="matrix(13.00967,0,0,13.00967,-1832.8215,-2429.576)" /></g></svg>
